<svg xmlns="http://www.w3.org/2000/svg" xmlns:xlink="http://www.w3.org/1999/xlink" width="52.79" height="29.664" viewBox="0 0 52.79 29.664">
  <defs>
    <clipPath id="clip-path">
      <rect id="Rectangle_3616" data-name="Rectangle 3616" width="52.79" height="29.664" transform="translate(0 0)" fill="#2c2c2c"/>
    </clipPath>
  </defs>
  <g id="arrow" transform="translate(0 0)">
    <g id="Group_6598" data-name="Group 6598" clip-path="url(#clip-path)">
      <path id="Path_22447" data-name="Path 22447" d="M52.529,13.472a1.333,1.333,0,0,0-.515-.4c-1.56-.69-3.1-1.41-4.645-2.135a1.155,1.155,0,0,0-.126-.091l-1.4-.643c-2-1.093-4.037-2.134-5.98-3.217A132.082,132.082,0,0,0,26.074.027a.406.406,0,0,0-.409.688l0,.006c.281.2.571.385.854.582a.883.883,0,0,0-.1.056c-.024.014-.048.02-.072.034-.007,0-.006.013-.013.017a.709.709,0,0,0-.119.126l-.266-.355a.769.769,0,1,0-1.233.919l0,0-.005,0,.028.036a9.37,9.37,0,0,1,.461.816,1.4,1.4,0,0,0-.255.657,1.419,1.419,0,0,0,.082.652,56.651,56.651,0,0,1,1.817,7.669q-3.854-.079-7.7-.169c-.893-.064-1.788-.116-2.684-.147a38.06,38.06,0,0,0-6.226.058c-.222-.009-.446-.015-.668-.026-2.181-.1-5.2-.7-7.2.537C.51,13.333.068,15.551.009,17.56c-.044,1.491.028,3.348,1.529,4.145,2.024,1.077,6.6.352,8.78.3.085,0,.172-.008.258-.01,2.467.771,5.284.029,7.815-.4q2.52-.183,5.034-.44,2.093.207,4.192.332a56.716,56.716,0,0,1-.4,6.558,1.446,1.446,0,0,0,1.961,1.521A206.655,206.655,0,0,0,50.006,16.9h.059a1.087,1.087,0,0,0,1.044-.756c.111-.077.224-.152.335-.229l.016.007a.949.949,0,0,0,1.241-1.19,1.3,1.3,0,0,0-.172-1.263m-15.4-1.183-.031-.007c-.038-.193-.086-.383-.14-.571l.445.163q-.139.207-.274.415m9.764,1.73a1.334,1.334,0,0,0-.313-.388c-.13-.082-.264-.15-.394-.23.009-.041.015-.081.02-.122.472.269.944.528,1.419.784-.244-.018-.489-.023-.732-.044M31.213,11.554l.174.482-.2,0c.006-.16.009-.319.023-.478M28.579,5.569a1.269,1.269,0,0,0,.408,1.256c.187.14.382.27.571.407a12.455,12.455,0,0,0-.518,1.347Q28.7,7.029,28.272,5.5c.1.025.206.045.307.072m-23,8.406h.031a4.665,4.665,0,0,0-.538.9,5.285,5.285,0,0,0-.41,1.357,4.283,4.283,0,0,1-1.161-.881c-.019-.021-.044-.032-.064-.052a4.067,4.067,0,0,1,2.142-1.321M2.972,18.857a1.209,1.209,0,0,0,.646-.373,8.338,8.338,0,0,0,2.3.746,4.468,4.468,0,0,0,.711.406c-1.478.072-2.939-.034-3.662-.779m29.367,2.816a1.234,1.234,0,0,0,.162.1l-1.175.936a1.356,1.356,0,0,0-.225,1.9,1.323,1.323,0,0,0,.473.363q-.627.353-1.258.7.141-2.028.144-4.058.939.033,1.879.051M43.158,18.09a1.225,1.225,0,0,0-1.11-.018h0L40.7,18.65a8.568,8.568,0,0,0,.964-.925c.942-.188,1.887-.349,2.839-.473-.445.283-.9.557-1.343.838" fill="#2c2c2c"/>
    </g>
  </g>
</svg>
