<svg id="get-solution" xmlns="http://www.w3.org/2000/svg" width="65.641" height="76.886" viewBox="0 0 65.641 76.886">
  <g id="Group_2871" data-name="Group 2871" transform="translate(7.786 0)">
    <g id="Group_2870" data-name="Group 2870">
      <g id="Group_3932" data-name="Group 3932">
        <g id="Group_3931" data-name="Group 3931">
          <path id="Path_6757" data-name="Path 6757" d="M5752.835,417.943a1.155,1.155,0,0,1-1.155-1.155V385.982a.578.578,0,0,0-.578-.578h-44.187a.578.578,0,0,0-.578.578v30.446a1.155,1.155,0,1,1-2.31,0V385.982a2.891,2.891,0,0,1,2.888-2.888H5751.1a2.891,2.891,0,0,1,2.888,2.888v30.805A1.155,1.155,0,0,1,5752.835,417.943Z" transform="translate(-5704.028 -383.094)" fill="#2c2c2c"/>
          <g id="Group_2859" data-name="Group 2859" transform="translate(5.151 6.787)">
            <path id="Path_6759" data-name="Path 6759" d="M5795.208,455.9h-36.524a1.155,1.155,0,1,1,0-2.31h36.524a1.155,1.155,0,0,1,0,2.31Z" transform="translate(-5757.528 -453.594)" fill="#2c2c2c"/>
          </g>
          <g id="Group_2860" data-name="Group 2860" transform="translate(5.536 11.985)">
            <path id="Path_6760" data-name="Path 6760" d="M5774.38,509.9h-11.7a1.155,1.155,0,0,1,0-2.31h11.7a1.155,1.155,0,0,1,0,2.31Z" transform="translate(-5761.528 -507.594)" fill="#2c2c2c"/>
          </g>
          <g id="Group_2861" data-name="Group 2861" transform="translate(5.536 18.627)">
            <path id="Path_6761" data-name="Path 6761" d="M5774.38,579h-.01l-11.7-.1a1.155,1.155,0,0,1,.019-2.31l11.7.1a1.155,1.155,0,0,1-.01,2.31Z" transform="translate(-5761.528 -576.594)" fill="#2c2c2c"/>
          </g>
          <g id="Group_2862" data-name="Group 2862" transform="translate(5.536 24.596)">
            <path id="Path_6762" data-name="Path 6762" d="M5774.38,641h-.01l-11.7-.1a1.155,1.155,0,0,1,.019-2.31l11.7.1a1.155,1.155,0,0,1-.01,2.31Z" transform="translate(-5761.528 -638.594)" fill="#2c2c2c"/>
          </g>
          <g id="Group_2863" data-name="Group 2863" transform="translate(22.046 11.937)">
            <path id="Path_6763" data-name="Path 6763" d="M5952.161,522.015h-15.932a3.2,3.2,0,0,1-3.2-3.2V510.3a3.2,3.2,0,0,1,3.2-3.2h15.932a3.2,3.2,0,0,1,3.2,3.2v8.519A3.2,3.2,0,0,1,5952.161,522.015ZM5936.229,509.4a.891.891,0,0,0-.89.891v8.519a.892.892,0,0,0,.89.891h15.932a.892.892,0,0,0,.891-.891V510.3a.892.892,0,0,0-.891-.891Z" transform="translate(-5933.028 -507.094)" fill="#2c2c2c"/>
          </g>
          <g id="Group_2864" data-name="Group 2864" transform="translate(25.655 16.221)">
            <path id="Path_6764" data-name="Path 6764" d="M5977.153,553.9h-5.47a1.155,1.155,0,1,1,0-2.31h5.47a1.155,1.155,0,0,1,0,2.31Z" transform="translate(-5970.528 -551.594)" fill="#2c2c2c"/>
          </g>
          <g id="Group_2865" data-name="Group 2865" transform="translate(25.655 20.264)">
            <path id="Path_6765" data-name="Path 6765" d="M5979.656,595.9h-7.973a1.155,1.155,0,1,1,0-2.31h7.973a1.155,1.155,0,0,1,0,2.31Z" transform="translate(-5970.528 -593.594)" fill="#2c2c2c"/>
          </g>
        </g>
        <g id="Group_2858" data-name="Group 2858" transform="translate(11.745 58.183)">
          <path id="Path_6758" data-name="Path 6758" d="M5851.454,979.4h-24.27a1.155,1.155,0,1,1,0-2.31h24.27a1.155,1.155,0,1,1,0,2.31Z" transform="translate(-5826.028 -977.094)" fill="#2c2c2c"/>
        </g>
        <g id="Group_2866" data-name="Group 2866" transform="translate(15.306 37.437)">
          <path id="Path_6766" data-name="Path 6766" d="M5881.319,763.9h-17.135a1.155,1.155,0,1,1,0-2.31h17.135a1.155,1.155,0,0,1,0,2.31Z" transform="translate(-5863.028 -761.594)" fill="#2c2c2c"/>
        </g>
        <g id="Group_2867" data-name="Group 2867" transform="translate(15.306 42.347)">
          <path id="Path_6767" data-name="Path 6767" d="M5881.319,814.9h-17.135a1.155,1.155,0,1,1,0-2.31h17.135a1.155,1.155,0,0,1,0,2.31Z" transform="translate(-5863.028 -812.594)" fill="#2c2c2c"/>
        </g>
        <g id="Group_2868" data-name="Group 2868" transform="translate(15.306 47.401)">
          <path id="Path_6768" data-name="Path 6768" d="M5881.319,867.4h-17.135a1.155,1.155,0,1,1,0-2.31h17.135a1.155,1.155,0,0,1,0,2.31Z" transform="translate(-5863.028 -865.094)" fill="#2c2c2c"/>
        </g>
        <g id="Group_2869" data-name="Group 2869" transform="translate(15.306 32.624)">
          <path id="Path_6769" data-name="Path 6769" d="M5881.319,713.9h-17.135a1.155,1.155,0,1,1,0-2.31h17.135a1.155,1.155,0,0,1,0,2.31Z" transform="translate(-5863.028 -711.594)" fill="#2c2c2c"/>
        </g>
      </g>
    </g>
  </g>
  <g id="Group_3935" data-name="Group 3935" transform="translate(0 31.97)">
    <g id="Group_3934" data-name="Group 3934">
      <path id="Path_6771" data-name="Path 6771" d="M1129.014,995.378V963.37s.342-3.081-3.595-2.91-3.766,2.91-3.766,2.91v8.387a2.445,2.445,0,0,1-2.4,2.225c-2.054,0-2.054-2.225-2.054-2.225V953.271s-4.108,1.883-4.793,2.739-3.081,18.657-2.91,20.54,5.82,11.639,5.82,11.639v7.189h13.694" transform="translate(-1108.238 -951.24)" fill="#c8c8c8"/>
      <path id="Path_6755" data-name="Path 6755" d="M5630.2,749.721a1.155,1.155,0,0,1-1.155-1.148c0-.244-.035-5.782-.037-6.778a48.081,48.081,0,0,0-3.02-5.671c-.3-.508-.615-1-.953-1.523-.41-.635-.834-1.292-1.267-2.048-.8-1.4-.679-3.518-.457-5.411l.023-.2c.02-.178.489-4.4,1.024-8.657,1.048-8.336,1.341-8.873,1.516-9.193.263-.481.863-1.144,3.32-2.411,1.257-.648,2.422-1.155,2.472-1.176l1.615-.7v20.407a1.088,1.088,0,0,0,2.176,0v-7.881a4.765,4.765,0,1,1,9.53,0v31.206a1.155,1.155,0,0,1-2.311,0V717.333a2.455,2.455,0,1,0-4.909,0v7.881a3.4,3.4,0,0,1-6.8,0v-16.84a14.294,14.294,0,0,0-3.058,1.823c-.389,1.2-1.458,9.584-2.282,17-.007.062-.015.134-.024.213-.089.76-.36,3.072.168,4,.4.7.808,1.331,1.2,1.94.353.545.685,1.06,1.007,1.613,3.334,5.716,3.334,6.384,3.334,6.743,0,.663.037,6.793.038,6.855a1.155,1.155,0,0,1-1.148,1.162Zm-2.315-39.49h0Z" transform="translate(-5623.151 -704.806)" fill="#2c2c2c"/>
    </g>
    <g id="Group_3933" data-name="Group 3933" transform="translate(43.8)">
      <path id="Path_6770" data-name="Path 6770" d="M1109.5,995.378V963.37s-.342-3.081,3.595-2.91,3.766,2.91,3.766,2.91v8.387a2.445,2.445,0,0,0,2.4,2.225c2.054,0,2.054-2.225,2.054-2.225V953.271s4.108,1.883,4.793,2.739,3.081,18.657,2.91,20.54-5.82,11.639-5.82,11.639v7.189H1109.5" transform="translate(-1107.5 -951.24)" fill="#c8c8c8"/>
      <g id="Group_2856" data-name="Group 2856">
        <path id="Path_6756" data-name="Path 6756" d="M6092.932,749.722h-.007a1.155,1.155,0,0,1-1.148-1.162c0-.062.037-6.192.037-6.855,0-.359,0-1.027,3.334-6.743.323-.553.655-1.068,1.007-1.613.394-.609.8-1.239,1.2-1.94.528-.924.257-3.236.169-4-.01-.08-.018-.151-.025-.213-.824-7.418-1.893-15.8-2.281-17a14.3,14.3,0,0,0-3.059-1.823v16.84a3.4,3.4,0,1,1-6.8,0v-7.881a2.455,2.455,0,1,0-4.91,0V748.54a1.155,1.155,0,0,1-2.311,0V717.333a4.765,4.765,0,0,1,9.531,0v7.881a1.088,1.088,0,1,0,2.175,0V704.807l1.615.7c.049.021,1.214.528,2.471,1.176,2.458,1.267,3.058,1.93,3.32,2.411.175.321.468.858,1.516,9.193.536,4.258,1.005,8.479,1.025,8.656.006.058.014.125.023.2.221,1.892.34,4.015-.457,5.411-.432.756-.856,1.413-1.267,2.048-.337.522-.656,1.015-.952,1.523a47.824,47.824,0,0,0-3.02,5.67c0,1-.036,6.534-.038,6.778A1.155,1.155,0,0,1,6092.932,749.722Zm2.315-39.49h0Z" transform="translate(-6078.144 -704.807)" fill="#2c2c2c"/>
      </g>
    </g>
  </g>
</svg>
