<svg id="pay" xmlns="http://www.w3.org/2000/svg" xmlns:xlink="http://www.w3.org/1999/xlink" width="74.378" height="58.407" viewBox="0 0 74.378 58.407">
  <defs>
    <clipPath id="clip-path">
      <rect id="Rectangle_4704" data-name="Rectangle 4704" width="74.378" height="58.407" fill="none"/>
    </clipPath>
  </defs>
  <g id="Group_8567" data-name="Group 8567" transform="translate(0 0)" clip-path="url(#clip-path)">
    <path id="Path_23673" data-name="Path 23673" d="M47.611,34.58c.662-.473,10.131-2.65,13.254-7.574a21.074,21.074,0,0,0,12.5,7.574c.286-.1.853,16.567-12.5,23.573A23.234,23.234,0,0,1,48.651,43.005c-.189-.19-1.7-7.952-1.04-8.426" transform="translate(-0.559 -0.319)" fill="#c8c8c8"/>
    <path id="Path_23674" data-name="Path 23674" d="M46.774,46.572H9.66a2.045,2.045,0,0,1-2.043-2.043V9.5A2.045,2.045,0,0,1,9.66,7.455h51.9A2.045,2.045,0,0,1,63.6,9.5V27.719a.964.964,0,0,0,1.928,0V9.5a3.975,3.975,0,0,0-3.971-3.971H9.66A3.975,3.975,0,0,0,5.69,9.5V44.529A3.975,3.975,0,0,0,9.66,48.5H46.774a.964.964,0,0,0,0-1.928" transform="translate(-0.067 -0.066)" fill="#2c2c2c"/>
    <path id="Path_23675" data-name="Path 23675" d="M3.97,41.045A2.044,2.044,0,0,1,1.928,39V3.971A2.044,2.044,0,0,1,3.97,1.928h51.9a2.045,2.045,0,0,1,2.043,2.043.964.964,0,1,0,1.927,0A3.975,3.975,0,0,0,55.869,0H3.97A3.976,3.976,0,0,0,0,3.971V39A3.976,3.976,0,0,0,3.97,42.973a.964.964,0,0,0,0-1.928" transform="translate(0 0)" fill="#2c2c2c"/>
    <path id="Path_23676" data-name="Path 23676" d="M17.5,22.969a4.8,4.8,0,0,0,3.37-1.379,4.82,4.82,0,1,0,3.377-8.261,4.846,4.846,0,0,0-3.374,1.382A4.818,4.818,0,1,0,17.5,22.969m6.747-7.711a2.892,2.892,0,1,1-2.272,4.678,4.8,4.8,0,0,0,0-3.574,2.865,2.865,0,0,1,2.273-1.1m-6.747,0a2.892,2.892,0,1,1-2.892,2.892A2.9,2.9,0,0,1,17.5,15.258" transform="translate(-0.149 -0.157)" fill="#2c2c2c"/>
    <path id="Path_23677" data-name="Path 23677" d="M21.428,36.28a.963.963,0,0,0-.964-.964H13.048a.964.964,0,1,0,0,1.927h7.417a.963.963,0,0,0,.964-.964" transform="translate(-0.142 -0.417)" fill="#2c2c2c"/>
    <path id="Path_23678" data-name="Path 23678" d="M32.888,36.28a.963.963,0,0,0-.964-.964H24.508a.964.964,0,0,0,0,1.927h7.417a.963.963,0,0,0,.964-.964" transform="translate(-0.277 -0.417)" fill="#2c2c2c"/>
    <path id="Path_23679" data-name="Path 23679" d="M13.048,40.518a.964.964,0,0,0,0,1.928h4.524a.964.964,0,0,0,0-1.928Z" transform="translate(-0.142 -0.478)" fill="#2c2c2c"/>
    <path id="Path_23680" data-name="Path 23680" d="M21.421,42.446h4.524a.964.964,0,0,0,0-1.928H21.421a.964.964,0,0,0,0,1.928" transform="translate(-0.241 -0.478)" fill="#2c2c2c"/>
    <path id="Path_23681" data-name="Path 23681" d="M35.969,35.316a.964.964,0,0,0,0,1.928h7.417a.964.964,0,0,0,0-1.928Z" transform="translate(-0.413 -0.417)" fill="#2c2c2c"/>
    <path id="Path_23682" data-name="Path 23682" d="M74.923,32.86l-.838-.11c-.114-.016-11.328-1.557-12.33-7.266l-.14-.8H59.6l-.139.8c-1,5.709-12.217,7.251-12.33,7.266l-.839.11v.846a31.1,31.1,0,0,0,2.125,11.6,27.014,27.014,0,0,0,4.688,7.7,23.643,23.643,0,0,0,6.89,5.6l.2.094h.836l.2-.094a23.615,23.615,0,0,0,6.89-5.6,27.017,27.017,0,0,0,4.689-7.7,31.123,31.123,0,0,0,2.124-11.6Zm-8.21,18.818a22.9,22.9,0,0,1-6.107,5.074A22.93,22.93,0,0,1,54.5,51.677a26.461,26.461,0,0,1-6.272-17.151c2.526-.449,9.87-2.111,12.379-6.611,2.51,4.5,9.853,6.163,12.38,6.611a26.462,26.462,0,0,1-6.273,17.151" transform="translate(-0.546 -0.291)" fill="#2c2c2c"/>
    <path id="Path_23683" data-name="Path 23683" d="M58.034,39.874A2.9,2.9,0,0,0,59.963,42.6c0,.014,0,.028,0,.042v3.827a.964.964,0,0,0,1.928,0V42.642c0-.014,0-.028,0-.042a2.891,2.891,0,1,0-3.853-2.726m3.855,0a.964.964,0,1,1-.964-.964.964.964,0,0,1,.964.964" transform="translate(-0.684 -0.436)" fill="#2c2c2c"/>
  </g>
</svg>
