<svg id="Group_8383" data-name="Group 8383" xmlns="http://www.w3.org/2000/svg" xmlns:xlink="http://www.w3.org/1999/xlink" width="71.086" height="76" viewBox="0 0 71.086 76">
  <defs>
    <clipPath id="clip-path">
      <rect id="Rectangle_4610" data-name="Rectangle 4610" width="71.086" height="76" fill="none"/>
    </clipPath>
  </defs>
  <g id="Group_8382" data-name="Group 8382" clip-path="url(#clip-path)">
    <path id="Path_23513" data-name="Path 23513" d="M254.3,162.445h20.4a1.141,1.141,0,1,0,0-2.283H254.3a1.141,1.141,0,1,0,0,2.283" transform="translate(-229.079 -144.927)"/>
    <path id="Path_23514" data-name="Path 23514" d="M254.3,255.442h20.4a1.141,1.141,0,1,0,0-2.283H254.3a1.141,1.141,0,1,0,0,2.283" transform="translate(-229.079 -229.078)"/>
    <circle id="Ellipse_599" data-name="Ellipse 599" cx="18.451" cy="18.451" r="18.451" transform="translate(33.272 30.919)" fill="#c8c8c8"/>
    <path id="Path_23515" data-name="Path 23515" d="M71.086,49.3A19.481,19.481,0,0,0,55.6,30.263V4.09A4.1,4.1,0,0,0,51.515,0H15.931a1.141,1.141,0,0,0-.853.333L.613,14.8A1.14,1.14,0,0,0,0,15.81v56.1A4.1,4.1,0,0,0,4.09,76H51.515a4.1,4.1,0,0,0,4.09-4.09V68.344A19.481,19.481,0,0,0,71.086,49.3M14.743,3.9V14.743H3.9ZM53.322,71.91a1.809,1.809,0,0,1-1.807,1.807H4.09A1.809,1.809,0,0,1,2.283,71.91V17.026h13.6a1.141,1.141,0,0,0,1.141-1.141V2.283H51.515A1.809,1.809,0,0,1,53.322,4.09V29.929c-.555-.048-1.117-.074-1.684-.074a19.336,19.336,0,0,0-10.853,3.317H11.3V50.445H32.224A19.306,19.306,0,0,0,34,57.5H9.987a1.141,1.141,0,1,0,0,2.283H35.261a19.45,19.45,0,0,0,16.377,8.969c.567,0,1.129-.026,1.684-.074Zm-21.1-23.748H13.586V35.456H38a19.393,19.393,0,0,0-5.773,12.706M51.638,66.468A17.165,17.165,0,1,1,68.8,49.3,17.184,17.184,0,0,1,51.638,66.468"/>
    <path id="Path_23516" data-name="Path 23516" d="M461.254,403.4l-8.019,8.138a1.141,1.141,0,0,0,1.626,1.6l5.461-5.541v16.473a1.141,1.141,0,1,0,2.283,0V407.7l5.508,4.982a1.141,1.141,0,0,0,1.531-1.693Z" transform="translate(-409.825 -365.029)"/>
  </g>
</svg>
